<?xml version="1.0" encoding="UTF-8"?>
<svg xmlns="http://www.w3.org/2000/svg" width="1200" height="692" viewBox="0 0 1200 692" role="img" aria-label="并发 4：早期单 slot 基线">
  <rect width="100%" height="100%" fill="#fffdf7"/>
  <text x="60" y="58" font-size="34" font-weight="850" fill="#202124">并发 4：早期单 slot 基线</text>
  <text x="60" y="88" font-size="17" fill="#62665f">这些是修 multi-slot 之前的 -np 1 数据，主要用来说明排队代价</text>
  
    <g transform="translate(0,0)">
      <rect x="46" y="120" width="1108" height="240" rx="12" fill="#fffefa" stroke="#d9d5c8"/>
      <text x="70" y="154" font-size="25" font-weight="800" fill="#202124">128 input / 64 output，c4：输出吞吐</text>
      <text x="70" y="182" font-size="16" fill="#62665f">并发 4 时的 output throughput，越高越好</text>
      <line x1="443.5" y1="196" x2="443.5" y2="328" stroke="#ebe6d9" stroke-width="1"/><line x1="631" y1="196" x2="631" y2="328" stroke="#ebe6d9" stroke-width="1"/><line x1="818.5" y1="196" x2="818.5" y2="328" stroke="#ebe6d9" stroke-width="1"/><line x1="1006" y1="196" x2="1006" y2="328" stroke="#ebe6d9" stroke-width="1"/>
      
      <g>
        <circle cx="78" cy="220" r="5" fill="#0d6f68"/>
        <text x="90" y="225" font-size="17" fill="#202124">MXFP4_MOE</text>
        <rect x="256" y="206" width="750" height="26" rx="5" fill="#f0ecdf"/>
        <rect x="256" y="206" width="750" height="26" rx="5" fill="#0d6f68"/>
        <text x="1022" y="225" font-size="17" font-weight="700" fill="#202124">6.97 tok/s</text>
      </g>
      <g>
        <circle cx="78" cy="264" r="5" fill="#284e7a"/>
        <text x="90" y="269" font-size="17" fill="#202124">Q8_0</text>
        <rect x="256" y="250" width="750" height="26" rx="5" fill="#f0ecdf"/>
        <rect x="256" y="250" width="716.6427546628407" height="26" rx="5" fill="#284e7a"/>
        <text x="1022" y="269" font-size="17" font-weight="700" fill="#202124">6.66 tok/s</text>
      </g>
      <g>
        <circle cx="78" cy="308" r="5" fill="#ad4f2f"/>
        <text x="90" y="313" font-size="17" fill="#202124">native Q4_K_M</text>
        <rect x="256" y="294" width="750" height="26" rx="5" fill="#f0ecdf"/>
        <rect x="256" y="294" width="688.6657101865137" height="26" rx="5" fill="#ad4f2f"/>
        <text x="1022" y="313" font-size="17" font-weight="700" fill="#202124">6.4 tok/s</text>
      </g>
    </g>
    <g transform="translate(0,0)">
      <rect x="46" y="388" width="1108" height="240" rx="12" fill="#fffefa" stroke="#d9d5c8"/>
      <text x="70" y="422" font-size="25" font-weight="800" fill="#202124">128 input / 64 output，c4：Mean TTFT</text>
      <text x="70" y="450" font-size="16" fill="#62665f">排队后首 token 延迟会明显抬高，越短越好</text>
      <line x1="443.5" y1="464" x2="443.5" y2="596" stroke="#ebe6d9" stroke-width="1"/><line x1="631" y1="464" x2="631" y2="596" stroke="#ebe6d9" stroke-width="1"/><line x1="818.5" y1="464" x2="818.5" y2="596" stroke="#ebe6d9" stroke-width="1"/><line x1="1006" y1="464" x2="1006" y2="596" stroke="#ebe6d9" stroke-width="1"/>
      
      <g>
        <circle cx="78" cy="488" r="5" fill="#0d6f68"/>
        <text x="90" y="493" font-size="17" fill="#202124">MXFP4_MOE</text>
        <rect x="256" y="474" width="750" height="26" rx="5" fill="#f0ecdf"/>
        <rect x="256" y="474" width="687.366737739872" height="26" rx="5" fill="#0d6f68"/>
        <text x="1022" y="493" font-size="17" font-weight="700" fill="#202124">25.79s</text>
      </g>
      <g>
        <circle cx="78" cy="532" r="5" fill="#284e7a"/>
        <text x="90" y="537" font-size="17" fill="#202124">Q8_0</text>
        <rect x="256" y="518" width="750" height="26" rx="5" fill="#f0ecdf"/>
        <rect x="256" y="518" width="719.0831556503198" height="26" rx="5" fill="#284e7a"/>
        <text x="1022" y="537" font-size="17" font-weight="700" fill="#202124">26.98s</text>
      </g>
      <g>
        <circle cx="78" cy="576" r="5" fill="#ad4f2f"/>
        <text x="90" y="581" font-size="17" fill="#202124">native Q4_K_M</text>
        <rect x="256" y="562" width="750" height="26" rx="5" fill="#f0ecdf"/>
        <rect x="256" y="562" width="750" height="26" rx="5" fill="#ad4f2f"/>
        <text x="1022" y="581" font-size="17" font-weight="700" fill="#202124">28.14s</text>
      </g>
    </g>
</svg>
